<?xml version="1.0" standalone="no"?>
<!DOCTYPE svg PUBLIC "-//W3C//DTD SVG 20010904//EN"
 "http://www.w3.org/TR/2001/REC-SVG-20010904/DTD/svg10.dtd">
<svg version="1.0" xmlns="http://www.w3.org/2000/svg"
 width="721.000000pt" height="721.000000pt" viewBox="0 0 721.000000 721.000000"
 preserveAspectRatio="xMidYMid meet">
<metadata>
Created by potrace 1.14, written by Peter Selinger 2001-2017
</metadata>
<g transform="translate(0.000000,721.000000) scale(0.100000,-0.100000)"
fill="#000000" stroke="none">
<path d="M3537 5063 c-4 -3 -7 -15 -7 -25 0 -19 12 -27 47 -32 16 -3 17 -13
16 -106 -2 -57 -4 -105 -6 -107 -4 -4 -21 -7 -78 -17 -19 -3 -43 -8 -54 -10
-26 -6 -129 -56 -135 -66 -3 -5 -12 -10 -20 -12 -8 -2 -25 -13 -39 -25 l-24
-22 -27 22 c-15 12 -25 25 -23 30 2 4 0 7 -5 7 -5 0 -30 21 -56 46 l-46 46 20
25 c21 27 17 53 -9 53 -25 0 -128 -111 -123 -132 4 -21 18 -22 52 -3 24 13 28
11 98 -58 39 -39 72 -76 72 -82 0 -6 -11 -22 -25 -37 -14 -15 -25 -31 -25 -37
0 -5 -4 -11 -8 -13 -10 -4 -60 -117 -66 -149 -3 -13 -5 -26 -6 -29 -5 -12 -7
-27 -8 -57 l-2 -31 -110 -1 c-98 0 -110 2 -110 18 0 28 -23 53 -43 45 -14 -5
-17 -20 -17 -89 0 -61 4 -86 15 -95 21 -17 44 3 41 35 -4 29 4 31 123 30 l95
-1 12 -64 c17 -91 48 -168 94 -234 22 -31 40 -59 40 -62 0 -2 -33 -38 -74 -79
l-74 -74 -23 19 c-21 19 -23 19 -41 3 -21 -19 -20 -20 55 -96 59 -60 108 -55
67 8 l-18 28 71 73 c39 41 75 74 79 74 7 0 36 -21 63 -47 8 -7 21 -13 29 -13
9 0 16 -3 16 -8 0 -6 56 -36 70 -37 3 0 10 -3 15 -6 21 -13 74 -25 133 -30 35
-4 34 -1 34 -94 -1 -133 -1 -132 -19 -132 -37 0 -43 -3 -43 -22 0 -24 17 -29
102 -29 45 0 71 5 79 14 12 14 6 45 -8 43 -4 -1 -18 -1 -30 0 -22 1 -23 4 -23
111 0 107 1 110 23 111 12 0 29 2 37 4 8 2 25 6 38 9 70 15 161 57 213 98 20
15 42 28 47 28 11 0 152 -138 152 -148 0 -3 -7 -13 -16 -23 -19 -22 -12 -49
13 -49 22 0 123 102 123 124 0 9 -7 16 -16 16 -9 0 -12 5 -8 13 5 6 -6 0 -24
-15 l-33 -27 -34 36 c-19 21 -35 41 -35 47 0 5 -2 7 -5 4 -3 -3 -21 10 -40 29
l-35 35 36 49 c28 39 107 201 102 212 0 1 3 25 6 52 l7 51 109 0 109 1 3 -31
c2 -23 9 -32 26 -34 25 -4 25 -6 27 100 1 69 -1 79 -18 84 -22 7 -37 -10 -37
-41 0 -19 -6 -20 -110 -21 -93 0 -110 2 -111 15 -3 57 -46 202 -61 209 -5 2
-8 9 -8 15 0 7 -18 36 -40 66 l-39 54 75 76 c64 65 77 74 87 61 7 -9 23 -16
37 -15 19 0 25 5 23 21 -3 25 -98 124 -119 124 -23 0 -28 -29 -9 -50 21 -23
20 -25 -74 -117 l-64 -62 -36 30 c-20 16 -41 29 -48 29 -7 0 -13 4 -13 8 0 9
-91 48 -102 44 -5 -1 -8 2 -8 6 0 5 -6 9 -12 10 -7 0 -41 6 -75 12 l-63 12 0
109 c0 106 1 109 23 109 34 0 50 15 42 39 -6 19 -14 21 -89 21 -45 0 -86 -3
-89 -7z m138 -333 c0 -2 47 -9 75 -11 8 -1 21 -6 28 -12 6 -5 12 -6 12 -3 0
15 140 -67 182 -107 174 -163 219 -400 117 -614 -55 -114 -210 -246 -316 -268
-46 -10 -48 -10 -60 -18 -8 -5 -13 -3 -13 5 0 9 -3 9 -8 2 -9 -13 -130 -10
-195 5 -100 23 -213 97 -279 181 -163 208 -148 497 36 684 34 35 72 67 84 70
12 4 22 12 22 17 0 5 9 9 20 9 11 0 20 4 20 8 0 11 104 44 147 47 18 1 35 4
37 6 4 4 91 3 91 -1z"/>
<path d="M3366 4494 c-36 -35 4 -106 47 -82 9 5 17 5 17 1 1 -4 7 3 14 16 30
55 -35 109 -78 65z"/>
<path d="M3775 4449 c-63 -19 -90 -104 -51 -161 23 -36 92 -66 109 -49 5 5 16
7 23 4 8 -3 17 2 20 11 3 9 12 16 19 16 11 0 26 36 30 75 3 25 -20 68 -46 88
-34 24 -62 29 -104 16z m90 -68 c30 -51 -12 -111 -65 -91 -3 1 -9 2 -13 1 -4
-1 -14 13 -21 31 -12 27 -12 35 1 54 24 37 77 39 98 5z"/>
<path d="M3328 4181 c-16 -9 -28 -21 -28 -28 0 -6 -5 -13 -11 -15 -16 -5 -18
-70 -2 -100 7 -15 23 -34 36 -42 28 -18 85 -27 93 -15 3 5 9 7 13 4 9 -5 43
30 59 60 5 11 8 35 6 54 -9 77 -98 121 -166 82z m104 -62 c9 -10 15 -27 13
-37 -2 -9 -4 -20 -4 -24 -1 -4 -13 -14 -28 -22 -43 -21 -78 -1 -89 52 -1 7 9
24 23 38 28 28 56 26 85 -7z"/>
<path d="M3785 3996 c-23 -17 -22 -63 1 -80 34 -25 84 2 84 45 0 34 -55 57
-85 35z"/>
<path d="M4730 3453 l0 -78 1117 2 c615 1 1124 2 1130 2 9 1 12 23 12 76 l-1
75 -1129 0 -1129 0 0 -77z"/>
<path d="M260 3435 l0 -75 1129 0 1128 0 2 75 2 75 -1130 0 -1131 0 0 -75z"/>
<path d="M666 3052 c-2 -2 -10 -5 -18 -6 -38 -8 -68 -19 -68 -25 0 -4 -11 -13
-24 -20 -28 -15 -53 -67 -64 -131 -8 -49 -7 -599 1 -640 3 -14 10 -36 15 -50
13 -33 81 -102 93 -94 5 3 9 1 9 -4 0 -5 6 -10 13 -11 28 -5 154 -3 176 2 51
14 116 82 128 137 4 18 14 119 13 140 0 8 -1 32 -1 53 l-1 37 -74 0 -74 0 -1
-35 c0 -19 -1 -59 -1 -87 -1 -64 -13 -92 -45 -107 -28 -13 -76 7 -91 37 -7 13
-10 531 -3 603 2 27 35 54 68 56 41 2 70 -35 71 -89 1 -99 2 -109 12 -103 6 3
10 1 10 -5 0 -7 6 -8 18 -1 11 6 24 6 35 0 9 -6 17 -6 17 -1 0 5 13 7 28 4
l29 -4 -3 89 c-1 48 -4 95 -7 103 -28 97 -100 151 -204 155 -29 1 -55 0 -57
-3z"/>
<path d="M1210 3050 c0 -3 -12 -5 -27 -4 -16 0 -30 -2 -33 -5 -3 -3 -22 -15
-42 -25 -21 -11 -38 -25 -38 -33 0 -7 -6 -16 -14 -19 -8 -3 -17 -20 -21 -37
-4 -18 -10 -39 -12 -47 -8 -23 -7 -611 1 -647 10 -53 22 -77 52 -106 29 -30
84 -63 84 -51 0 4 6 2 13 -3 14 -12 120 -10 162 2 40 11 87 40 78 48 -3 4 1 7
10 7 9 0 16 3 15 8 -1 4 4 18 12 32 17 30 20 42 25 95 2 22 4 41 5 43 6 7 5
29 -2 44 -5 10 -4 19 2 23 8 5 7 11 -1 21 -9 11 -9 14 0 14 8 0 9 5 1 19 -7
14 -7 22 0 26 8 5 8 11 0 20 -8 10 -8 19 0 35 8 14 8 25 1 33 -6 8 -6 18 -1
27 5 9 5 19 -1 27 -7 8 -7 18 1 32 7 15 8 27 0 40 -7 14 -7 22 0 26 8 5 7 11
-1 21 -9 11 -8 14 2 14 10 0 10 3 1 12 -7 7 -8 17 -2 29 6 10 6 20 2 23 -10 6
-9 36 2 54 4 6 3 12 -3 12 -5 0 -9 8 -9 18 0 9 -5 31 -11 47 -7 17 -12 31 -12
32 2 11 -73 72 -95 78 -16 5 -36 10 -44 12 -25 7 -100 9 -100 3z m85 -161 c25
-24 27 -49 27 -345 1 -251 -1 -283 -17 -307 -9 -15 -21 -25 -25 -22 -5 3 -11
1 -14 -3 -9 -14 -53 -2 -73 20 -17 18 -18 45 -18 327 0 292 1 307 20 327 24
24 77 26 100 3z"/>
<path d="M4878 3047 c-11 -4 -24 -5 -29 -1 -5 3 -9 0 -9 -5 0 -6 -6 -11 -12
-11 -23 0 -77 -54 -95 -95 -15 -35 -17 -79 -19 -367 -1 -226 2 -338 10 -360
36 -104 95 -143 214 -142 161 1 223 75 226 274 l1 101 -75 -3 -75 -3 -2 -89
c-1 -59 -7 -96 -17 -111 -29 -43 -95 -35 -116 14 -7 19 -10 123 -8 324 3 286
4 297 24 317 17 17 28 20 58 15 48 -9 58 -30 58 -121 0 -51 4 -74 12 -71 6 2
23 0 38 -4 15 -4 30 -4 33 1 3 5 15 6 29 1 17 -7 25 -5 32 7 10 18 10 101 0
165 -13 80 -82 155 -147 160 -16 1 -29 4 -29 7 0 8 -78 6 -102 -3z"/>
<path d="M1552 3042 c-23 -3 -23 -6 -17 -60 4 -31 7 -65 8 -74 1 -10 4 -18 7
-18 3 0 6 -19 7 -43 0 -23 4 -53 6 -67 6 -26 17 -89 22 -125 1 -11 3 -20 4
-20 1 0 4 -18 6 -40 1 -22 5 -51 9 -65 3 -14 7 -43 10 -65 9 -71 17 -129 22
-155 6 -31 12 -75 15 -117 2 -18 7 -33 11 -33 4 0 5 -6 3 -12 -3 -7 -1 -26 3
-43 l8 -29 98 -1 c53 -1 100 3 103 8 3 5 8 26 10 46 5 43 11 76 13 76 1 0 3
16 5 35 9 76 24 176 31 210 2 14 7 48 10 75 3 28 8 54 11 59 3 5 7 33 9 62 1
29 5 57 7 61 3 5 9 36 12 68 4 33 9 69 12 80 2 11 6 38 9 60 7 61 10 74 16 80
3 4 3 15 1 26 -5 18 -13 20 -76 17 -61 -3 -71 -6 -73 -23 -7 -47 -16 -123 -19
-155 -2 -19 -4 -35 -5 -35 -1 0 -3 -18 -5 -40 -2 -22 -5 -53 -8 -70 -3 -16 -8
-50 -11 -75 -3 -25 -8 -55 -10 -67 -3 -12 -8 -50 -12 -85 -3 -35 -8 -72 -9
-83 -2 -11 -4 -28 -4 -37 -1 -10 -5 -18 -9 -18 -4 0 -8 8 -9 18 -8 84 -11 117
-13 117 -3 0 -7 29 -14 95 -4 36 -9 81 -12 100 -10 68 -15 105 -18 140 -2 19
-6 49 -9 65 -6 32 -19 122 -20 142 0 11 -89 21 -135 15z"/>
<path d="M2145 3040 l-50 -5 0 -478 c0 -417 2 -477 15 -478 91 -8 140 -4 141
11 4 61 3 934 -1 939 -8 12 -50 16 -105 11z"/>
<path d="M2372 3039 c-15 -5 -16 -46 -17 -482 0 -468 0 -476 20 -479 23 -5
260 0 290 5 48 8 112 58 130 102 15 37 17 50 19 156 2 58 6 111 10 117 3 6 1
14 -5 18 -8 4 -7 9 2 15 8 5 10 9 4 9 -11 0 -13 179 -2 197 4 7 3 14 -3 18 -7
4 -7 12 0 26 6 10 7 19 3 19 -4 0 -9 30 -9 68 -2 105 -53 179 -138 201 -49 12
-188 17 -205 7 -6 -4 -11 -4 -11 1 0 9 -63 11 -88 2z m265 -161 c17 -18 36
-168 20 -168 -4 0 -3 -8 2 -18 6 -10 6 -24 1 -32 -5 -8 -6 -18 -4 -22 7 -11 7
-266 0 -277 -4 -5 -2 -12 3 -15 13 -8 -4 -84 -24 -106 -14 -15 -31 -20 -69
-20 l-52 0 2 333 c1 182 2 335 3 338 3 14 102 2 118 -13z"/>
<path d="M3128 3042 l-46 -3 0 -57 c0 -91 -2 -88 83 -86 l74 2 1 -405 c0 -223
2 -408 5 -412 3 -6 94 -7 141 -2 8 1 11 116 12 394 0 215 1 399 1 408 1 12 14
16 64 16 34 0 69 1 77 2 12 1 15 16 15 68 l0 68 -37 6 c-21 3 -42 1 -48 -5 -6
-6 -10 -6 -10 0 0 10 -92 10 -109 0 -6 -4 -11 -4 -11 1 0 8 -108 7 -142 -1 -9
-2 -18 -1 -20 3 -2 3 -24 5 -50 3z"/>
<path d="M3625 3030 c-2 -8 -4 -227 -4 -485 l0 -470 77 0 77 0 3 206 2 207 48
-5 c29 -2 55 -11 67 -24 21 -20 23 -44 24 -291 1 -86 10 -95 92 -92 35 1 68 2
72 3 5 0 5 16 1 34 -4 17 -8 97 -9 177 -2 168 -13 218 -56 254 l-31 26 31 25
c37 32 53 79 56 168 4 137 -27 217 -96 252 -16 9 -29 13 -29 9 0 -4 -6 -2 -12
4 -7 5 -37 9 -66 8 -28 0 -52 1 -52 4 0 7 -96 4 -109 -4 -6 -4 -11 -4 -11 1 0
15 -70 9 -75 -7z m263 -152 c21 -14 24 -26 27 -94 5 -119 -14 -150 -91 -153
l-44 -1 0 134 0 133 43 -1 c23 -1 53 -9 65 -18z"/>
<path d="M4299 3039 c-5 -3 -12 -16 -14 -30 -7 -30 -35 -205 -40 -239 -1 -14
-8 -53 -14 -87 -19 -110 -30 -177 -36 -218 -4 -22 -8 -51 -11 -65 -2 -14 -7
-41 -10 -60 -8 -55 -13 -83 -18 -110 -3 -14 -8 -43 -11 -65 -3 -22 -7 -52 -10
-66 l-6 -25 72 1 c83 0 82 0 93 105 4 36 11 69 16 74 12 12 160 13 161 1 0 -5
2 -19 5 -30 2 -11 6 -38 9 -60 12 -95 7 -90 91 -90 l76 -1 -6 51 c-3 27 -8 61
-10 75 -3 14 -7 41 -10 60 -3 19 -7 44 -10 55 -2 11 -7 40 -10 65 -3 25 -8 54
-10 65 -2 11 -9 56 -16 100 -7 44 -14 89 -16 100 -4 21 -28 171 -39 240 -3 22
-11 67 -18 99 l-12 59 -46 0 c-26 0 -51 -3 -58 -7 -6 -4 -11 -4 -11 1 0 9 -67
11 -81 2z m98 -241 c1 -33 14 -132 18 -138 2 -3 7 -37 10 -75 4 -39 8 -72 10
-75 2 -3 6 -29 10 -57 l6 -53 -62 0 -62 0 8 63 c8 75 8 71 30 230 17 117 30
159 32 105z"/>
<path d="M5275 3040 c-11 -4 -23 -6 -27 -3 -4 2 -7 -41 -6 -95 1 -54 -2 -104
-6 -110 -4 -7 -4 -12 1 -12 4 0 8 -27 8 -60 0 -33 -3 -60 -7 -60 -4 0 -5 -7
-1 -15 3 -9 6 -150 7 -313 l1 -297 75 0 75 0 5 165 c5 165 7 173 48 239 5 9
21 -15 25 -39 2 -14 7 -32 10 -40 3 -8 15 -49 27 -90 12 -41 25 -86 30 -100 4
-14 14 -45 21 -70 7 -25 16 -50 21 -56 4 -6 39 -10 80 -9 73 1 73 1 71 28 -1
15 -14 66 -29 114 -16 49 -29 94 -30 101 -1 8 -6 21 -10 30 -4 9 -9 25 -11 35
-1 10 -12 46 -22 80 -11 34 -30 98 -44 141 l-24 79 89 174 c48 95 88 175 88
178 0 3 -35 5 -78 5 l-78 0 -47 -97 c-25 -54 -51 -109 -56 -123 -6 -14 -15
-32 -21 -40 -5 -8 -20 -37 -32 -65 l-23 -50 -3 186 -2 187 -41 4 c-22 2 -43 0
-46 -5 -3 -5 -8 -5 -12 1 -3 5 -15 6 -26 2z"/>
<path d="M5815 3032 c-2 -7 -4 -224 -4 -481 0 -354 3 -470 12 -473 10 -4 379
-3 400 1 4 0 7 32 7 70 l0 70 -97 0 c-54 0 -113 0 -130 0 l-33 1 0 143 0 143
88 -1 c124 -1 118 -5 117 71 0 46 -5 68 -15 74 -9 6 -16 6 -18 0 -2 -6 -8 -8
-13 -4 -14 8 -98 10 -92 2 2 -5 -6 -4 -19 1 -13 4 -29 6 -35 4 -10 -4 -13 25
-13 120 l0 124 128 -1 127 -1 3 69 c3 71 -9 96 -35 74 -7 -6 -13 -7 -13 -2 0
10 -173 9 -189 -1 -6 -3 -11 -3 -11 2 0 14 -159 10 -165 -5z"/>
<path d="M6316 3034 c-2 -6 -3 -224 -3 -485 l2 -474 65 0 c36 -1 71 1 78 3 9
3 12 54 12 207 l0 202 45 -2 c86 -5 94 -25 95 -234 1 -108 6 -163 13 -169 7
-5 44 -8 82 -7 64 0 70 2 68 20 -2 11 -4 92 -6 180 -4 184 -15 233 -57 266
-32 26 -38 39 -17 39 15 0 54 56 62 92 11 45 12 180 2 223 -10 38 -57 121 -57
100 0 -6 -3 -6 -8 0 -17 24 -60 40 -104 40 -27 0 -48 2 -48 5 0 11 -220 5
-224 -6z m256 -149 c9 -4 22 -21 27 -38 11 -34 9 -150 -3 -178 -10 -22 -50
-39 -91 -39 l-35 0 0 134 0 135 43 -3 c23 -2 50 -7 59 -11z"/>
</g>
</svg>
